<?xml version="1.0" encoding="utf-8"?>
<!-- Generator: Adobe Illustrator 25.2.1, SVG Export Plug-In . SVG Version: 6.00 Build 0)  -->
<svg version="1.1" id="Capa_1" xmlns="http://www.w3.org/2000/svg" xmlns:xlink="http://www.w3.org/1999/xlink" x="0px" y="0px"
	 viewBox="0 0 40 40" style="enable-background:new 0 0 40 40;" xml:space="preserve">
<style type="text/css">
	.st0{fill:#FFFFFF;}
</style>
<g>
	<g>
		<path class="st0" d="M34.7,15.6c0.3,2.2-2.1,12.6-9.3,15.9c5.3-2.9,12.5-16.8,5.3-23.4c-1.1-0.7-2.3-1.1-3.2-1.2
			c10.4,3.6,1.7,28.7-15.5,25.3c2.2,1.2,4.8,1.9,7.5,1.9C29.8,34.1,36.4,24.5,34.7,15.6z"/>
		<path class="st0" d="M10.7,29.1c-0.2,0.9-1,0.9-2.9-1.6c-8.4-10.9,13-25.6,22.9-19.4c-5.8-6-15.8-6.7-22.2-0.3
			c-2.6,2.5-4,5.8-4.4,9.1c0.8-2.4,6.6-13,18.5-11.3c-7-0.4-12.7,3.7-15.7,7.6c-4.3,5.7-2.3,13.1,2,16.8
			C10.2,30.7,10.6,30,10.7,29.1z"/>
		<path class="st0" d="M10,23.6c0.2,1,1,4.2,0.7,5.5c-0.1,0.8-0.5,1.6-1.7,0.9c3,2.5,2.9-3.3,6.7-8.5c0.1-0.2-0.2-4.4,0-4.6
			c0.1-0.1,0.6,3.9,0.7,3.8c0.7-0.8,1.4-1.6,2.3-2.3c0.1-0.1,0.5-3,0.6-3.1s-0.2,2.8-0.1,2.7c1-0.7,3-1.8,4.3-2.3
			c-0.7,0.4-2.6,1.5-3.4,2.3l3.2-0.2c0,0-3.7,0.6-3.8,0.7c-0.4,0.4-1.8,1.9-3.2,4.2c-0.1,0.1,4.5-0.6,4.4-0.4s-4.9,1.2-5,1.3
			c-0.9,1.6-1.8,3.5-2.3,5.5C28,32.8,28.1,13.2,28.2,8.5C24.3,14.1,7.9,12.1,10,23.6z"/>
	</g>
</g>
</svg>
