<svg id="Capa_1" data-name="Capa 1" xmlns="http://www.w3.org/2000/svg" viewBox="0 0 220.74 237.79"><defs><style>.cls-1{fill:#005bbe;}</style></defs><path class="cls-1" d="M153,214.66c6.66-2.11,13.29-4.32,20-6.32,13.38-4,26.87-7.15,40.79-6.56,1.6.07,2.23-.72,2.35-2.43.24-3.8.67-7.59.75-11.39q.72-33,1.29-66c0-.83-.11-1.65-.2-2.89-4,1.62-7.82,3.06-11.53,4.71-.5.22-.92,1.47-.95,2.26-.31,8.75-.54,17.51-.8,26.27q-.57,19.14-1.17,38.27c-.13,4.07-.21,3.67-3.59,4.23a128.56,128.56,0,0,0-18.47,4c-13.72,4.41-27.32,9.37-41,14.09-.14,0-.31-.08-1-.26,4.41-3.43,8.47-6.73,12.66-9.81,7.95-5.84,16.13-11.18,25.19-14.35a24.52,24.52,0,0,1,5.26-1.17c1.66-.2,2.5-.92,2.53-3,.25-16.1.57-32.2.84-48.3,0-1.4-.2-2.8-.34-4.62-1.86.63-3.48,1.12-5.07,1.72-18,6.83-36.07,13.72-54.15,20.43a7.54,7.54,0,0,1-5.13-.1c-18.67-7.35-37.29-14.88-55.93-22.34-.68-.27-1.39-.42-2.55-.77,0,1.31,0,2.3,0,3.29q.27,23.14.55,46.31a8.14,8.14,0,0,0,0,.86c.22,1.79,0,4,.84,5.23.72,1.06,2.65,1.05,4.06,1.41,6.92,1.79,13.28,5.28,19.34,9.36,7.26,4.89,14.29,10.23,21.28,15.76-20.84-6.94-41.3-15.3-63.24-18.17-.15-2.88-.37-5.8-.45-8.72q-.8-29.7-1.49-59.41c-.06-2.77-.81-4.34-3.25-5s-4.94-1.93-7.41-2.89a17.18,17.18,0,0,0-2.16-.49c0,1.3,0,2.23,0,3.15.31,17.54.56,35.07,1,52.6.19,8.37.66,16.74.94,25.11.07,1.91.42,3.06,2.38,2.95a80.6,80.6,0,0,1,25.49,3c11.09,3,22.09,6.42,33.12,9.68a15.51,15.51,0,0,1,2,1c-25.48-2.82-50.5-6.61-76-6.17-.12-1.08-.28-2.18-.34-3.28q-.86-16-1.66-31.93c-1.24-24.81-2.55-49.61-3.62-74.43C13.76,90.52,14,81.54,14,72.58c0-1.45.24-2.44,1.78-2.18a25,25,0,0,1,14.08,7.94,4.26,4.26,0,0,1,.51,2.36c.19,6.77.21,13.54.55,20.29.14,2.71-.43,4.31-2.72,5a17,17,0,0,0-2.76,1.6c4.45,1.76,8.32,3.31,12.2,4.83,4.16,1.63,8.36,3.14,12.48,4.92a3.49,3.49,0,0,1,1.54,2.56q.21,8.14,0,16.3c0,1.21-.93,2.37-1.13,3.62-.31,1.86-1.11,4.39-.39,5.56,2.27,3.73,1.3,7.25.39,10.87-.54,2.16-1.33,4.24-2.14,6.76H59.15c-.86-3.13-1.73-6.15-2.51-9.2-.7-2.7-1-5.27.69-7.83,1.45-2.12.85-4.39-.4-6.6a9.75,9.75,0,0,1-1.32-4.29c-.15-5.11-.06-10.24-.06-15.83,4.7,1.74,9,3.28,13.34,5,10.89,4.26,21.75,8.61,32.64,12.89,6.94,2.74,13.9,5.44,20.88,8a4.58,4.58,0,0,0,3,.06q28.89-10.68,57.73-21.48,18.72-7,37.43-14a21.48,21.48,0,0,0,2.09-1c-.21-.53-.24-.79-.35-.84-4.09-2-4.09-2-4-7.16.06-6.29.21-12.58.13-18.87,0-2.49.6-4.27,2.5-5.36,3.42-2,6.83-4,10.3-5.79a9.9,9.9,0,0,1,3.2-.45,15.25,15.25,0,0,1,.27,2.18c-.41,19.81-.55,39.64-1.34,59.43-.93,23.49-2.44,46.95-3.64,70.43-.34,6.75-.26,6.47-6.12,6.74q-17.48.79-34.95,2.21c-9,.73-17.88,1.9-26.82,2.91-2.89.33-5.77.79-8.65,1.19Z" transform="translate(-13.93 -37.61)"/><path class="cls-1" d="M77.67,84.37c-.36-15.58-.71-30.79-1.08-46.76,2.24,1.13,3.93,1.92,5.56,2.84a29.59,29.59,0,0,1,4.07,2.61c3,2.35,6.86,4.15,8.5,7.44,1.47,2.94.45,7.59.49,11.48,0,3.69,0,7.37,0,11.45a24.9,24.9,0,0,0,2.7-.77c8-3.45,16-7,24.09-10.3a6.35,6.35,0,0,1,4.62,0c8.57,3.67,17.06,7.59,25.57,11.42a4.4,4.4,0,0,0,1,.14,18.28,18.28,0,0,0,.24-2.13c0-6,.1-12,0-18,0-2.18.42-3.77,2-5.12,5.14-4.38,10.49-8.29,17-10.94-.3,16-.6,31.5-.9,47.55-6.45-2.89-12.45-5.54-18.43-8.25-8.82-4-17.64-7.94-26.41-12a5.48,5.48,0,0,0-4.9,0Q101.55,74,81.3,82.91C80.24,83.37,79.16,83.77,77.67,84.37Z" transform="translate(-13.93 -37.61)"/><path class="cls-1" d="M226.75,250.62c1.33,1.23,2.84,2.18,3.81,3.61,3.53,5.21,2.4,15.17-4,18.35a19.52,19.52,0,0,1-7.55,2c-5.71.29-11.44,0-17.16.13-1.86,0-2.37-.72-2.36-2.81.07-13.43,0-26.87,0-40.31,0-1.4-.08-2.76,1.66-2.72,7,.14,14.07-.1,21.07.51C230,230,234,239.8,229.66,247A31.16,31.16,0,0,1,226.75,250.62ZM210.38,255c0,1.55,0,2.67,0,3.79,0,8,0,8,6.89,7,2.44-.35,4-2.52,4-5.44,0-2.63-1.71-5.14-3.91-5.35S213,255,210.38,255Zm4.1-17.52a16.08,16.08,0,0,0-2.69,0c-.46.07-1.25.57-1.26.9-.05,2.83-.37,5.82.35,8.42.21.77,3.41.47,5.24.58a1.75,1.75,0,0,0,1.37-.49c1-1.26,2.33-2.53,2.56-4C220.64,239.09,218.83,237.5,214.48,237.49Z" transform="translate(-13.93 -37.61)"/><path class="cls-1" d="M40.82,228.93c3.19,0,6-.1,8.72.09a2.48,2.48,0,0,1,1.57,1.79c0,10.48.28,21-.33,31.42-.4,6.8-4.7,10.72-10.22,12.22a23.6,23.6,0,0,1-15.88-.91c-5.12-2.2-8.23-7.44-8.25-13.84,0-9.34.06-18.68-.06-28,0-2.38.69-3,2.57-2.79a27.17,27.17,0,0,0,5.63,0c1.89-.21,2.42.61,2.4,2.71-.07,8.29,0,16.58,0,24.86a27.63,27.63,0,0,0,.21,3.41c.69,5.06,3,7.2,7.44,6.82,3.84-.32,6.21-3.42,6.23-8.27,0-8.57,0-17.14,0-25.72Z" transform="translate(-13.93 -37.61)"/><path class="cls-1" d="M160.24,274.61c-3.2,0-6.29.06-9.38-.07-.55,0-1.21-.76-1.58-1.36a9.78,9.78,0,0,1-.78-2.38c-1.63-5.73-1.63-5.73-6.65-5.74-2.2,0-4.41.06-6.62,0-1.51-.06-2.34.52-2.82,2.35-1.91,7.28-2,7.26-8.45,7.24H120c.87-3,1.58-5.64,2.35-8.21,3.53-11.72,7.1-23.43,10.58-35.18.53-1.8,1.23-2.56,3-2.46,3.26.19,6.54,0,9.8.16a3,3,0,0,1,2.31,1.69c4.17,14.29,8.21,28.63,12.27,42.95A6.07,6.07,0,0,1,160.24,274.61ZM140.53,237a14.53,14.53,0,0,0-1.09,2.27c-1.25,5.27-2.5,10.55-3.6,15.86a2.41,2.41,0,0,0,1.27,1.87,57,57,0,0,0,5.85.1c1.74,0,2-1,1.58-2.76C143.21,248.79,142,243.23,140.53,237Z" transform="translate(-13.93 -37.61)"/><path class="cls-1" d="M190,246.84a7.93,7.93,0,0,1,.26,1c0,8.74,1,6.8-5.71,7-2.62.1-5.23.06-7.85,0-1.34,0-1.91.67-1.89,2.23.11,10.82-1.21,8.55,6.87,8.77q5,.14,10,0c1.75-.06,2.49.52,2.44,2.73-.17,7.09.7,5.9-5,5.95-7.35.07-14.7,0-22.06,0h-2.84V229.07a17.37,17.37,0,0,1,2.27-.24c8,0,16,.16,24,.08,2.17,0,2.83.83,2.76,3.3-.15,5.64.48,5.11-4.31,5.07-3.92,0-7.84.05-11.76,0-1.72,0-2.5.6-2.45,2.79.17,8-.72,6.63,5.67,6.77C183.65,246.9,186.82,246.84,190,246.84Z" transform="translate(-13.93 -37.61)"/><path class="cls-1" d="M55.89,251.64c0-6.57.07-13.15,0-19.71-.05-2.42.7-3.09,2.69-3,5.63.2,11.28,0,16.9.31,6.33.37,10.49,5.06,11,11.35.87,10.72-4.14,15.4-9.53,16.57a37,37,0,0,1-6.82.58c-3.33.11-3.35,0-3.38,4,0,3.43-.06,6.86,0,10.29,0,2-.61,2.72-2.31,2.61a37.24,37.24,0,0,0-5.88,0c-2,.19-2.79-.62-2.69-3,.13-3.33,0-6.67,0-10s0-6.67,0-10Zm10.83-8.32h0c0,1.33,0,2.66,0,4-.07,1.85.68,2.58,2.22,2.43.81-.08,1.64,0,2.44-.07,3.12-.51,4.68-3.3,4.29-7.58-.3-3.36-2.52-5-6.63-4.83-3.8.12-1.77,3.54-2.31,5.49A2.17,2.17,0,0,0,66.72,243.32Z" transform="translate(-13.93 -37.61)"/><path class="cls-1" d="M205.59,51V99.85c-1.09-.35-1.78-.5-2.42-.79-4.95-2.19-9.86-4.5-14.84-6.57-1.45-.6-1.83-1.46-1.82-3.11.05-8.66,0-17.31.05-26a5.32,5.32,0,0,1,.66-2.91c4.48-5.82,10.07-9.17,16.82-9.72A7.92,7.92,0,0,1,205.59,51Z" transform="translate(-13.93 -37.61)"/><path class="cls-1" d="M43.18,50.61c7.78.46,13.76,4,18.66,10.21a5.52,5.52,0,0,1,.57,3c0,8.19,0,16.39.05,24.59,0,2-.5,3-2.26,3.68-5.54,2.18-11,4.67-17,7.27Z" transform="translate(-13.93 -37.61)"/><path class="cls-1" d="M89.39,237.51c-1.21-8.36-1-8.62,5.65-8.57q13.49.09,27-.07c1.85,0,2.77.44,2.58,2.82-.14,1.78,0,3.58,0,5.83-3.4,0-6.56.13-9.7-.05-2.16-.13-2.84.78-2.82,3.26.09,10.19,0,20.38.09,30.56,0,2.61-.65,3.64-2.94,3.39a26.15,26.15,0,0,0-5.38,0c-2,.19-2.5-.76-2.48-3,.08-10.29,0-20.57.08-30.85,0-2.6-.59-3.56-2.89-3.4C95.51,237.67,92.49,237.51,89.39,237.51Z" transform="translate(-13.93 -37.61)"/><path class="cls-1" d="M112.67,213.44c.11-4.2,3.71-8,8-8.76,8.38-1.48,13.92,1.47,16.2,8.88C128.75,206.36,120.73,207.18,112.67,213.44Z" transform="translate(-13.93 -37.61)"/><path class="cls-1" d="M124.84,106c-2.66,0-4.93-1.45-4.89-3.18s2.15-3,4.76-3H125c1.86.22,4,.13,4.43,2.94C129.66,104.48,127.45,105.93,124.84,106Z" transform="translate(-13.93 -37.61)"/></svg>